<?xml version="1.0" encoding="UTF-8"?>
<svg id="Layer_2" data-name="Layer 2" xmlns="http://www.w3.org/2000/svg" viewBox="0 0 776.36 493.98">
  <defs>
    <style>
      .cls-1 {
        fill: #fdfbe1;
      }

      .cls-2 {
        fill: #023e1e;
      }
    </style>
  </defs>
  <g id="Layer_1-2" data-name="Layer 1">
    <g id="vGFvz3.tif">
      <g>
        <polygon class="cls-2" points="769.74 0 776.36 484.9 .2 493.98 0 0 769.74 0"/>
        <path class="cls-1" d="M274.51,236.81c-1.14-7.41-2.78-14.74-3.98-22.14-1.03-6.33-2.57-14.32-2.99-20.58-.09-1.36-.44-4.89,1.21-5.21,2.52-.49,2.98,1.21,3.54,3.15,2.84,9.94,3.54,22.68,5.22,33.08.81,4.99,2.07,15.21,4.11,19.46.39.82,1.95,2.28,2.03,2.83.13.9-.77,1.5-.77,2.39-.01,1.29,1.95,4.61.58,5.45-.4.25-2.97.92-3.43.85-.89-.12-1.69-1.89-2.43-1.89-.36,0-1.37,1.01-1.95,1.28-7.54,3.49-15.5,2.44-18.38-6.15-1.73-5.17-1.59-16.63,4.45-19.01,5.44-2.14,9.07,3.82,12.79,6.48Z"/>
        <path class="cls-1" d="M558.43,245.02c.21.25.76.39,1,.74.76,1.14-.27,2.16-.3,3.24-.04,1.23,1.19,4.48.29,5.36-.27.26-3.27,1.21-3.6,1.14-.71-.13-.84-2.06-1.79-1.97-1.08.1-3.6,1.86-4.93,2.31-9.45,3.16-16.18-2.85-16.79-12.18-.35-5.28,1.69-15.67,8.93-14.54,2.81.44,6.57,5.05,9.05,6.63-.85-8.8-2.89-17.43-4.24-26.15-.78-5.04-2.38-12.82-2.46-17.64-.03-1.41.13-3.48,1.87-3.76s2.4,1.25,2.79,2.61c2.43,8.7,3.02,20.32,4.52,29.5.76,4.65,3.28,21.75,5.68,24.72Z"/>
        <path class="cls-1" d="M205.76,215.46c1.17,1.16.35,3.3.33,4.6-.28,16.04-.7,28.62,9.68,41.78,1.23,1.56,5.97,5.8,5.51,7.65-.34,1.39-1.97,1.39-3.1.92-3.3-1.38-10.05-11.69-11.17-11.9-.33-.06-3.36,3.88-4.26,4.53-4.2,3.03-9.47-.92-12.21-4.14-6.23-7.32-8.61-22.25-7.77-31.6.16-1.73.96-5.43,3.48-4.28,1.98.9,1.18,8.53,1.35,10.71.43,5.59,3.37,20.81,8.06,24.09,3.58,2.5,6.51.54,7.77-3.19s-.56-7.31-1.27-11.07c-1.12-5.94-2.54-21.21-.81-26.62.65-2.05,2.85-3.03,4.41-1.47Z"/>
        <path class="cls-1" d="M464.94,240.32c1.07,4.45-3.26,9.62-6.4,12.42-9.28,8.28-20.4,7.48-26.7-3.62-1.03,2.21-4.14,7.9-6.56,8.46-2.64.61-3.97-2.95-4.44-4.98-1.68-7.22.93-18.3,5.78-23.96,2.98-3.48,5.33-4.74,7.55.21,2.37,5.28.96,9.15,1.95,14.39,1.62,8.59,8.51,12.64,16.6,8.51,4.8-2.45,7.18-7.44,10.76-11.21l1.46-.22Z"/>
        <path class="cls-1" d="M398.21,220.97c.53.34,2.21-.47,2.83-.72,2.35-.95,9.51-5.53,11.4-5.26,1.16.16.6,1.35.1,2.01-1.85,2.43-13.33,7.63-13.46,8.41,1.35,7.41,4.5,15.27,5.01,22.78.11,1.61.33,8.64-3.1,6.58-1.84-1.11-1.97-9.52-2.34-11.86-.57-3.6-1.69-7.99-2.68-11.51-.18-.62-.98-3.85-1.42-3.95-4.83,1.8-8.62,5.25-12.8,8.09-1.93,1.31-6.86,5.4-8.78,2.76-1.57-2.16,1.6-4.56,3.13-5.72,5.29-4,12.04-6.2,17.67-9.68.5-.78-1.7-10.75-1.95-12.53-.26-1.88-.9-5.28-.14-6.95.43-.94,2.09-1.8,2.5-.49.7,2.18,3.03,17.42,4.03,18.06Z"/>
        <path class="cls-1" d="M477.35,220.97c1.52.95,12.07-6.56,14.28-5.83,1.89.63-1.05,3.08-1.73,3.56-1.44,1.02-11.01,6.14-11.21,6.77.36,4.71,2.08,9.15,3.06,13.74.77,3.62,2.13,10.23,1.41,13.73-.36,1.77-1.86,2.8-3.3,1.28-2.01-2.12-1.64-8.82-2.07-11.86-.45-3.21-1.52-7.3-2.42-10.44-.2-.69-1.2-4.43-1.66-4.46l-18.91,11.64c-2.03.64-3.53-1.7-2.76-3.56.59-1.44,5.83-4.3,7.4-5.2,4.36-2.5,9.01-4.55,13.27-7.24.06-1.33.14-2.73.02-4.06-.38-4.13-2.15-8.84-2.38-12.89-.05-.87.01-2.78.72-3.36,2.56-2.11,3.12,3.33,3.44,4.83.4,1.86,1.93,12.79,2.85,13.36Z"/>
        <path class="cls-1" d="M506.09,239.68c-.27-.3-.51-1.68-.46-2.12.32-2.91,5.49-2.97,7.06-5.22,2.44-3.5-2.36-5.54-5.59-1.83-4.38,5.04-5.87,15.7-1.61,21.14,4.16,5.33,9.06,4.53,14.58,1.98,1.53-.7,6-4.39,5.2.1-.58,3.26-8.68,6.27-11.63,6.6-16.26,1.82-17.5-20.29-12.05-30.77,3.2-6.15,8.78-8.54,14.49-3.47,5.4,4.8-.28,10.08-4.78,12.63-1.23.7-4,2.28-5.21.96Z"/>
        <path class="cls-1" d="M318.47,251.84c.63.4.07,1.99-.18,2.55-1.8,4.1-10.84,6.29-14.95,5.99-14.28-1.07-13.78-28.71-4.66-35.47,6.04-4.47,15.83,2.27,12.1,8.6-1.25,2.13-7.97,6.86-10.4,6.79-.57-.02-1.24-.44-1.4-1.01-1.15-3.92,6.29-5.09,7.69-7.74,1.16-2.21-2.13-4.34-4.39-2.78-2.89,2-5.78,10.1-6.03,13.53-.58,7.92,5.25,15.07,13.62,12.8,1.82-.49,7.16-4.16,8.6-3.25Z"/>
        <path class="cls-1" d="M225.69,225.83v21.29c0,.1.79.88,1.07.67,1.58-4.62,2.37-9.56,3.89-14.19.5-1.52,2.29-7.27,4.7-4.69,1.72,1.85,1.76,8.86,2.54,11.65,1.02,3.64,4.23,8.15,8.12,9.03,1.46.33,4.51-.44,4.62,1.56.12,2.14-2.86,3.27-4.62,3.25-5.23-.05-8.16-3.63-10.45-7.78-.52-.95-1.12-3.71-2.45-3.6-.23.02-1.14.45-1.27.65-.58.92-1.23,4.85-1.73,6.24-.59,1.63-3.23,7.51-5.3,7.19-1.75-.27-2.19-5.3-2.34-6.79-.58-5.7-.99-13.9-.55-19.56.16-2.08,1.24-5.37,3.77-4.94Z"/>
        <path class="cls-1" d="M354.63,253.41c3.78.2,7.61-.2,11.28-1.19,1.16-.31,6.22-1.7,3.96-3.53-1.08-.87-3.35-1.78-4.63-2.6-5.26-3.38-9-6.3-8.24-13.21.82-7.38,11.82-8.88,16.88-4.79,2.42,1.95,1.18,3.73-1.73,3.6s-8.87-2.51-10.19,1.59c-2.56,7.96,13.66,9.22,13.84,16.47.17,6.85-13.16,8.7-18.13,8.17-2.46-.26-3.84-2.17-3.04-4.52Z"/>
        <path class="cls-1" d="M348.48,230.44c1.19,1.24-.45,3.15-1.8,3.56-3.93,1.18-11.53-2.54-12.55,3.81-.45,2.8-.37,6.47-.06,9.31.21,1.94,2.44,8.81-1.19,8.44-2.38-.24-3.69-6.26-4.1-8.25-.8-3.8-1.92-15.42.87-18.25,2.19-2.22,2.55,1.66,3.75,1.87,1.35.24,3.81-1.38,5.28-1.7,1.96-.41,8.38-.26,9.8,1.22Z"/>
        <path class="cls-1" d="M569.79,252.66c4.02-.9,5.97,4.65,1.33,6.69-4.91,2.16-4.45-5.99-1.33-6.69Z"/>
        <path class="cls-2" d="M263.97,233.92c2.64-.6,5.33,2.53,6.73,4.41,1.03,1.38,5.65,8.75,5.3,10-.63,2.31-7.17,2.89-9.14,2.67-4.82-.55-6.36-6.81-6.03-10.84.15-1.8,1.08-5.78,3.14-6.24Z"/>
        <path class="cls-2" d="M540.57,233.91c2.57-.37,5.78,3.72,7.15,5.59,1.09,1.5,4.65,7.14,4.71,8.71.05,1.09-2.05,1.81-2.95,2.11-5.35,1.77-11.08.43-12.27-5.69-.5-2.56.11-10.26,3.35-10.72Z"/>
        <path class="cls-2" d="M430.64,239.08c-.16,1.59-1.04,4.08-1.6,5.63-.25.69-2.19,5.3-2.42,5.48-.96.76-1.5-3.34-1.5-3.66-.07-2.99,2.34-10.15,4.19-12.54.2-.26,1.34-1.44,1.34-.54,0,1.76.17,3.93,0,5.62Z"/>
      </g>
    </g>
  </g>
</svg>